<svg xmlns="http://www.w3.org/2000/svg" xmlns:xlink="http://www.w3.org/1999/xlink" width="400" height="400" viewBox="0 0 400 400">
  <defs>
    <clipPath id="clip-img-service-icon_seo">
      <rect width="400" height="400"/>
    </clipPath>
  </defs>
  <g id="img-service-icon_seo" clip-path="url(#clip-img-service-icon_seo)">
    <g id="グループ_405" data-name="グループ 405" transform="translate(-42.573 -64.669)">
      <rect id="長方形_473" data-name="長方形 473" width="29.266" height="118.604" rx="10" transform="matrix(-0.788, -0.616, 0.616, -0.788, 124.683, 464.668)" fill="#333"/>
      <g id="グループ_404" data-name="グループ 404" transform="translate(197.704 64.669)">
        <path id="合体_1" data-name="合体 1" d="M8.014,68.283l0,0H6.485L0,9.2,30.66,30.4,46.732,0,62.806,30.4,93.466,9.2,86.981,68.283Z" transform="translate(5.639 6.162)" fill="#333"/>
        <circle id="楕円形_5" data-name="楕円形 5" cx="6.161" cy="6.161" r="6.161" transform="translate(46.209)" fill="#333"/>
        <circle id="楕円形_6" data-name="楕円形 6" cx="6.161" cy="6.161" r="6.161" transform="translate(0 9.242)" fill="#333"/>
        <circle id="楕円形_7" data-name="楕円形 7" cx="6.161" cy="6.161" r="6.161" transform="translate(90.878 9.242)" fill="#333"/>
      </g>
      <g id="楕円形_4" data-name="楕円形 4" transform="translate(122.704 131.792)" fill="#fff" stroke="#333" stroke-width="8">
        <ellipse cx="130.411" cy="131.017" rx="130.411" ry="131.017" stroke="none"/>
        <ellipse cx="130.411" cy="131.017" rx="126.411" ry="127.017" fill="none"/>
      </g>
      <text id="SEO" transform="translate(163.95 295.137)" fill="#333" font-size="86" font-family="YuGo-Bold, YuGothic" font-weight="700"><tspan x="0" y="0">SEO</tspan></text>
    </g>
  </g>
</svg>
