<svg xmlns="http://www.w3.org/2000/svg" xmlns:xlink="http://www.w3.org/1999/xlink" width="400" height="400" viewBox="0 0 400 400">
  <defs>
    <clipPath id="clip-img-service-icon_website">
      <rect width="400" height="400"/>
    </clipPath>
  </defs>
  <g id="img-service-icon_website" clip-path="url(#clip-img-service-icon_website)">
    <g id="グループ_414" data-name="グループ 414" transform="translate(-28 -36)">
      <g id="長方形_468" data-name="長方形 468" transform="translate(28 52)" fill="#fff" stroke="#333" stroke-width="10">
        <rect width="400" height="260" rx="6" stroke="none"/>
        <rect x="5" y="5" width="390" height="250" rx="1" fill="none"/>
      </g>
      <path id="長方形_469" data-name="長方形 469" d="M6,0H208a6,6,0,0,1,6,6V37a0,0,0,0,1,0,0H0a0,0,0,0,1,0,0V6A6,6,0,0,1,6,0Z" transform="translate(121 356)" fill="#333"/>
      <rect id="長方形_470" data-name="長方形 470" width="94" height="44" transform="translate(181 312)" fill="#333"/>
      <rect id="長方形_471" data-name="長方形 471" width="383" height="27" transform="translate(37 285)" fill="#333"/>
      <path id="パス_6" data-name="パス 6" d="M0,0H115.116V129.652H0Z" transform="translate(262.884 121.441)" fill="#333"/>
      <g id="グループ_403" data-name="グループ 403" transform="translate(83.233 125.648)">
        <line id="線_5" data-name="線 5" x2="130.233" fill="none" stroke="#333" stroke-width="4"/>
        <line id="線_6" data-name="線 6" x2="130.233" transform="translate(0 29.149)" fill="none" stroke="#333" stroke-width="4"/>
        <line id="線_7" data-name="線 7" x2="130.233" transform="translate(0 58.297)" fill="none" stroke="#333" stroke-width="4"/>
        <line id="線_8" data-name="線 8" x2="122.093" transform="translate(0 87.446)" fill="none" stroke="#333" stroke-width="4"/>
        <line id="線_9" data-name="線 9" x2="109.302" transform="translate(0 116.595)" fill="none" stroke="#333" stroke-width="4"/>
      </g>
    </g>
  </g>
</svg>
