<svg xmlns="http://www.w3.org/2000/svg" xmlns:xlink="http://www.w3.org/1999/xlink" width="400" height="400" viewBox="0 0 400 400">
  <defs>
    <clipPath id="clip-img-service-icon_contents">
      <rect width="400" height="400"/>
    </clipPath>
  </defs>
  <g id="img-service-icon_contents" clip-path="url(#clip-img-service-icon_contents)">
    <g id="グループ_416" data-name="グループ 416" transform="translate(-43.366 -75.5)">
      <g id="長方形_481" data-name="長方形 481" transform="translate(59 240.398)" fill="#333" stroke="#707070" stroke-width="1">
        <rect width="368.595" height="112.519" stroke="none"/>
        <rect x="0.5" y="0.5" width="367.595" height="111.519" fill="none"/>
      </g>
      <g id="前面オブジェクトで型抜き_1" data-name="前面オブジェクトで型抜き 1" transform="translate(59 75.5)" fill="#fff">
        <path d="M 2.500092506408691 266.0393676757812 L 2.50248908996582 2.500009775161743 L 183.8740081787109 2.500009775161743 L 183.8740081787109 266.037353515625 C 182.8560638427734 265.1788635253906 181.6836853027344 264.3420715332031 180.3586730957031 263.5289611816406 C 175.4591979980469 260.5198974609375 168.5113525390625 257.8346557617188 159.7090148925781 255.5483551025391 C 141.9083251953125 250.9270172119141 118.28466796875 248.3819732666016 93.18955230712891 248.3819732666016 C 68.09112548828125 248.3819732666016 44.46570587158203 250.9270172119141 26.66531944274902 255.5483245849609 C 17.86808776855469 257.8326721191406 10.92108821868896 260.5178833007812 6.017165660858154 263.5294189453125 C 4.691123008728027 264.3434143066406 3.518446207046509 265.1805114746094 2.500092506408691 266.0393676757812 Z" stroke="none"/>
        <path d="M 5.000136375427246 261.221923828125 C 10.09500980377197 258.1532287597656 17.17026138305664 255.4309387207031 26.0371265411377 253.1285095214844 C 44.0367431640625 248.4555053710938 67.88528442382812 245.8819732666016 93.18955230712891 245.8819732666016 C 118.4905090332031 245.8819732666016 142.3372802734375 248.4555053710938 160.3374786376953 253.128662109375 C 169.2086944580078 255.4328460693359 176.2841949462891 258.1547546386719 181.3740081787109 261.220458984375 L 181.3740081787109 5.000010013580322 L 5.002466201782227 5.000010013580322 L 5.000136375427246 261.221923828125 M 0.570896327495575 277.764404296875 L 0.5683578848838806 277.764404296875 L 0.002511718776077032 277.7619018554688 L 1.171875010186341e-05 275.2301940917969 C 0.02528094872832298 276.0776672363281 0.2147040218114853 276.9295959472656 0.5683578848838806 277.7619018554688 L 0.570896327495575 277.764404296875 Z M 186.3740081787109 277.7619018554688 L 185.8081970214844 277.7619018554688 C 186.1517486572266 276.9491271972656 186.3437042236328 276.1193542480469 186.3715057373047 275.2914428710938 L 186.3740081787109 277.7619018554688 Z M 0.002511718776077032 274.9251708984375 L 1.171875010186341e-05 274.9251708984375 L 0.002511718776077032 9.840745406108908e-06 L 186.3740081787109 9.840745406108908e-06 L 186.3740081787109 274.8633117675781 C 186.2628936767578 271.6723327636719 183.8025512695312 268.575439453125 179.0511322021484 265.6597900390625 C 174.3603210449219 262.7788696289062 167.6411285400391 260.1915893554688 159.0805053710938 257.9680786132812 C 141.479248046875 253.3985137939453 118.0783157348633 250.8819732666016 93.18955230712891 250.8819732666016 C 68.29570770263672 250.8819732666016 44.89477920532227 253.3985137939453 27.29355049133301 257.9680786132812 C 18.73793411254883 260.189697265625 12.01874256134033 262.777587890625 7.325434684753418 265.6597900390625 C 2.543704032897949 268.5950012207031 0.07831940799951553 271.7127380371094 0.002511718776077032 274.9251708984375 Z" stroke="none" fill="#333"/>
      </g>
      <g id="前面オブジェクトで型抜き_2" data-name="前面オブジェクトで型抜き 2" transform="translate(241.358 75.5)" fill="#fff">
        <path d="M 2.500092506408691 266.0393676757812 L 2.50248908996582 2.500009775161743 L 183.8740081787109 2.500009775161743 L 183.8740081787109 266.037353515625 C 182.8560638427734 265.1788635253906 181.6836853027344 264.3420715332031 180.3586730957031 263.5289611816406 C 175.4591979980469 260.5198974609375 168.5113525390625 257.8346557617188 159.7090148925781 255.5483551025391 C 141.9083251953125 250.9270172119141 118.28466796875 248.3819732666016 93.18955230712891 248.3819732666016 C 68.09112548828125 248.3819732666016 44.46570587158203 250.9270172119141 26.66531944274902 255.5483245849609 C 17.86808776855469 257.8326721191406 10.92108821868896 260.5178833007812 6.017165660858154 263.5294189453125 C 4.691123008728027 264.3434143066406 3.518446207046509 265.1805114746094 2.500092506408691 266.0393676757812 Z" stroke="none"/>
        <path d="M 5.000136375427246 261.221923828125 C 10.09500980377197 258.1532287597656 17.17026138305664 255.4309387207031 26.0371265411377 253.1285095214844 C 44.0367431640625 248.4555053710938 67.88528442382812 245.8819732666016 93.18955230712891 245.8819732666016 C 118.4905090332031 245.8819732666016 142.3372802734375 248.4555053710938 160.3374786376953 253.128662109375 C 169.2086944580078 255.4328460693359 176.2841949462891 258.1547546386719 181.3740081787109 261.220458984375 L 181.3740081787109 5.000010013580322 L 5.002466201782227 5.000010013580322 L 5.000136375427246 261.221923828125 M 0.570896327495575 277.764404296875 L 0.5683578848838806 277.764404296875 L 0.002511718776077032 277.7619018554688 L 1.171875010186341e-05 275.2301940917969 C 0.02528094872832298 276.0776672363281 0.2147040218114853 276.9295959472656 0.5683578848838806 277.7619018554688 L 0.570896327495575 277.764404296875 Z M 186.3740081787109 277.7619018554688 L 185.8081970214844 277.7619018554688 C 186.1517486572266 276.9491271972656 186.3437042236328 276.1193542480469 186.3715057373047 275.2914428710938 L 186.3740081787109 277.7619018554688 Z M 0.002511718776077032 274.9251708984375 L 1.171875010186341e-05 274.9251708984375 L 0.002511718776077032 9.840745406108908e-06 L 186.3740081787109 9.840745406108908e-06 L 186.3740081787109 274.8633117675781 C 186.2628936767578 271.6723327636719 183.8025512695312 268.575439453125 179.0511322021484 265.6597900390625 C 174.3603210449219 262.7788696289062 167.6411285400391 260.1915893554688 159.0805053710938 257.9680786132812 C 141.479248046875 253.3985137939453 118.0783157348633 250.8819732666016 93.18955230712891 250.8819732666016 C 68.29570770263672 250.8819732666016 44.89477920532227 253.3985137939453 27.29355049133301 257.9680786132812 C 18.73793411254883 260.189697265625 12.01874256134033 262.777587890625 7.325434684753418 265.6597900390625 C 2.543704032897949 268.5950012207031 0.07831940799951553 271.7127380371094 0.002511718776077032 274.9251708984375 Z" stroke="none" fill="#333"/>
      </g>
      <g id="グループ_411" data-name="グループ 411" transform="translate(262.119 122.203)">
        <line id="線_5" data-name="線 5" x1="144.852" fill="none" stroke="#333" stroke-width="4"/>
        <line id="線_6" data-name="線 6" x1="144.852" transform="translate(0 38.869)" fill="none" stroke="#333" stroke-width="4"/>
        <line id="線_7" data-name="線 7" x1="144.852" transform="translate(0 77.738)" fill="none" stroke="#333" stroke-width="4"/>
        <line id="線_8" data-name="線 8" x1="135.798" transform="translate(9.053 116.606)" fill="none" stroke="#333" stroke-width="4"/>
        <line id="線_9" data-name="線 9" x1="121.572" transform="translate(23.28 155.475)" fill="none" stroke="#333" stroke-width="4"/>
      </g>
      <g id="グループ_408" data-name="グループ 408" transform="translate(278.32 187.277) rotate(45)">
        <g id="グループ_407" data-name="グループ 407" transform="translate(0 0)">
          <g id="グループ_406" data-name="グループ 406" transform="translate(0 0)">
            <g id="合体_2" data-name="合体 2" transform="translate(0 0)" fill="#fff">
              <path d="M 75.79849243164062 242.3933410644531 L 3.799445152282715 178.3208160400391 L 3.579850673675537 178.1253967285156 L 75.78694152832031 6.449841022491455 L 148.2276763916016 178.7806243896484 L 75.79849243164062 242.3933410644531 Z" stroke="none"/>
              <path d="M 75.80937194824219 239.0564575195312 L 145.2254943847656 178.0900421142578 L 75.78627777099609 12.89962959289551 L 6.577534198760986 177.4464874267578 L 75.80937194824219 239.0564575195312 M 75.78760528564453 245.730224609375 L 2.137499809265137 180.1884002685547 L -1.65666847351531e-07 180.1884002685547 L 75.78760528564453 5.161830358701991e-06 L 151.5313568115234 180.1884002685547 L 150.4132843017578 180.1884002685547 L 75.78760528564453 245.730224609375 Z" stroke="none" fill="#333"/>
            </g>
            <rect id="長方形_477" data-name="長方形 477" width="6.467" height="112.519" transform="translate(72.032 12.933)" fill="#333"/>
          </g>
          <g id="楕円形_8" data-name="楕円形 8" transform="translate(55.331 122.865)" fill="#fff" stroke="#333" stroke-width="5">
            <circle cx="20.435" cy="20.435" r="20.435" stroke="none"/>
            <circle cx="20.435" cy="20.435" r="17.935" fill="none"/>
          </g>
        </g>
        <g id="長方形_478" data-name="長方形 478" transform="translate(40.093 204.344)" fill="#333" stroke="#333" stroke-width="5">
          <rect width="70.052" height="51.733" stroke="none"/>
          <rect x="2.5" y="2.5" width="65.052" height="46.733" fill="none"/>
        </g>
      </g>
      <g id="グループ_409" data-name="グループ 409" transform="translate(79.761 122.203)">
        <line id="線_5-2" data-name="線 5" x2="144.852" fill="none" stroke="#333" stroke-width="4"/>
        <line id="線_6-2" data-name="線 6" x2="144.852" transform="translate(0 38.869)" fill="none" stroke="#333" stroke-width="4"/>
        <line id="線_7-2" data-name="線 7" x2="144.852" transform="translate(0 77.738)" fill="none" stroke="#333" stroke-width="4"/>
        <line id="線_8-2" data-name="線 8" x2="135.798" transform="translate(0 116.606)" fill="none" stroke="#333" stroke-width="4"/>
        <line id="線_9-2" data-name="線 9" x2="121.572" transform="translate(0 155.475)" fill="none" stroke="#333" stroke-width="4"/>
      </g>
    </g>
  </g>
</svg>
