<svg xmlns="http://www.w3.org/2000/svg" viewBox="0 0 48 48"><defs><style>.cls-1{fill:#cb7aa6;}.cls-2{fill:#fff;stroke:#e6e6e6;stroke-miterlimit:10;stroke-width:0.25px;}.cls-3{fill:#fcee21;}</style></defs><g id="レイヤー_2" data-name="レイヤー 2"><g id="レイヤー_1-2" data-name="レイヤー 1"><rect class="cls-1" width="48" height="48"/><path class="cls-2" d="M23.6832,35.48849c-.321,6.11529-5.294,10.04442-7.07835,9.395-1.172-.42656-3.06827-6.85591.61665-11.74684,7.07835-9.395,5.74132-9.86082,7.07835-9.395C25.57751,24.18682,24.29985,23.74165,23.6832,35.48849Z"/><path class="cls-2" d="M16.609,32.69722c-4.17675,4.47824-10.51187,4.29155-11.46131,2.64709-.62359-1.0801,2.05647-7.22418,8.02311-8.60223C24.63208,24.095,23.9073,22.87871,24.63208,24.095,25.32468,25.25728,24.63208,24.095,16.609,32.69722Z"/><path class="cls-2" d="M13.24018,26.46688c-6.07813.74576-10.81112-3.46939-10.48138-5.3394.21657-1.22825,6.219-4.21218,11.67546-1.43254,10.48138,5.33941,10.708,3.94179,10.48138,5.33941C24.6991,26.3699,24.91564,25.03435,13.24018,26.46688Z"/><path class="cls-2" d="M20.40382,13.71166C18.61393,7.85537,21.94316,2.46234,23.842,2.46234c1.24719,0,5.22809,5.393,3.43819,11.24933C23.842,24.961,25.25774,24.94146,23.842,24.961,22.48915,24.97965,23.842,24.961,20.40382,13.71166Z"/><path class="cls-2" d="M13.939,17.9921c-5.13549-3.33566-6.05173-9.607-4.59711-10.82752.95541-.80168,7.47153.77075,9.86474,6.40745,4.59711,10.82752,5.66907,9.90254,4.59711,10.82752C22.77936,25.28345,23.80372,24.39955,13.939,17.9921Z"/><path class="cls-2" d="M20.46656,13.71167c-1.7899-5.85629,1.53933-11.24933,3.4382-11.24933,1.24719,0,5.2281,5.393,3.4382,11.24933C23.90476,24.961,25.32049,24.94146,23.90476,24.961,22.5519,24.97966,23.90476,24.961,20.46656,13.71167Z"/><path class="cls-2" d="M28.00913,13.25789c2.39321-5.63669,8.41013-7.628,9.86474-6.40744.95541.80168.53837,7.49186-4.59712,10.82752-9.86474,6.40744-8.76768,7.30249-9.86474,6.40744C22.36366,23.2301,23.412,24.08541,28.00913,13.25789Z"/><path class="cls-2" d="M33.57382,18.66076c5.4565-2.77963,11.34572-.43747,11.67545,1.43255.21658,1.22825-4.40325,6.08516-10.48138,5.33939C23.09243,24.00015,23.3575,25.391,23.09243,24.00015,22.83913,22.67108,23.09243,24.00015,33.57382,18.66076Z"/><path class="cls-2" d="M34.78673,26.14271c5.96664,1.378,8.97253,6.95777,8.02309,8.60223-.62359,1.0801-7.28455,1.83115-11.4613-2.64709-8.02309-8.60224-8.714-7.36642-8.02309-8.60224C23.9857,22.31466,23.32543,23.49561,34.78673,26.14271Z"/><path class="cls-2" d="M30.68512,32.55712c3.68492,4.89093,2.401,11.09739.61664,11.74684-1.172.42657-6.75733-3.27968-7.07835-9.395-.61664-11.74684-1.94031-11.24428-.61664-11.74684C24.87166,22.6819,23.60677,23.16215,30.68512,32.55712Z"/><path class="cls-2" d="M34.061,30.0079c5.13549,3.33566,6.05173,9.60695,4.59711,10.82752-.95541.80168-7.47153-.77075-9.86474-6.40745-4.59711-10.82752-5.66907-9.90254-4.59711-10.82752C25.22064,22.71655,24.19628,23.60045,34.061,30.0079Z"/><path class="cls-2" d="M34.75982,21.53312c6.07813-.74576,10.81112,3.46939,10.48138,5.3394-.21657,1.22825-6.219,4.21218-11.67546,1.43254-10.48138-5.33941-10.708-3.94179-10.48138-5.33941C23.3009,21.6301,23.08436,22.96565,34.75982,21.53312Z"/><path class="cls-2" d="M31.391,15.30278c4.17675-4.47824,10.51187-4.29155,11.46131-2.64709.62359,1.0801-2.05647,7.22418-8.02311,8.60223C23.36792,23.905,24.0927,25.12129,23.36792,23.905,22.67532,22.74272,23.36792,23.905,31.391,15.30278Z"/><path class="cls-2" d="M24.3168,12.51151c.321-6.11529,5.294-10.04442,7.07835-9.395,1.172.42656,3.06827,6.85591-.61665,11.74684-7.07835,9.395-5.74132,9.86082-7.07835,9.395C22.42249,23.81318,23.70015,24.25835,24.3168,12.51151Z"/><path class="cls-2" d="M17.31488,15.44288C13.63,10.552,14.91389,4.34549,16.69824,3.696c1.172-.42657,6.75733,3.27968,7.07835,9.395.61664,11.74684,1.94031,11.24428.61664,11.74684C23.12834,25.3181,24.39323,24.83785,17.31488,15.44288Z"/><path class="cls-2" d="M13.21327,21.85729c-5.96664-1.378-8.97253-6.95777-8.02309-8.60223.62359-1.0801,7.28455-1.83115,11.4613,2.64709,8.02309,8.60224,8.714,7.36642,8.02309,8.60224C24.0143,25.68534,24.67457,24.50439,13.21327,21.85729Z"/><path class="cls-2" d="M14.42618,29.33924c-5.4565,2.77963-11.34572.43747-11.67545-1.43255C2.53415,26.67845,7.154,21.82153,13.23211,22.5673c11.67546,1.43255,11.41039.04172,11.67546,1.43255C25.16087,25.32892,24.90757,23.99985,14.42618,29.33924Z"/><path class="cls-2" d="M19.99087,34.74211c-2.39321,5.63669-8.41013,7.628-9.86474,6.40744-.95541-.80168-.53837-7.49186,4.59712-10.82752,9.86474-6.40744,8.76768-7.30249,9.86474-6.40744C25.63634,24.7699,24.588,23.91459,19.99087,34.74211Z"/><path class="cls-2" d="M27.53344,34.28833c1.7899,5.85629-1.53933,11.24933-3.4382,11.24933-1.24719,0-5.2281-5.393-3.4382-11.24933,3.4382-11.24932,2.02247-11.22979,3.4382-11.24932C25.4481,23.02034,24.09524,23.039,27.53344,34.28833Z"/><circle class="cls-3" cx="24" cy="24" r="7.5"/></g></g></svg>